G04 DipTrace 2.2.0.9*
%INBottom.gbr*%
%MOIN*%
%ADD14C,0.012*%
%ADD15C,0.025*%
%ADD19C,0.0709*%
%ADD20C,0.04*%
%ADD21C,0.0191*%
%ADD22C,0.0394*%
%FSLAX44Y44*%
%SFA1B1*%
%OFA0B0*%
G04*
G70*
G90*
G75*
G01*
%LNBottom*%
%LPD*%
X7441Y7503D2*
D14*
X11628D1*
X12191Y8066D1*
X11753Y6065D2*
X13941D1*
X14754Y6878D1*
D20*
X11753Y6065D3*
X7065Y4815D3*
X7441Y7503D3*
X12191Y8066D3*
X8691Y5440D3*
X11316Y6941D3*
X5342Y8129D2*
D15*
X11706D1*
X12678D2*
X15167D1*
X5397Y7881D2*
X7144D1*
X7737D2*
X11523D1*
X12643D2*
X15167D1*
X5346Y7632D2*
X6968D1*
X12385D2*
X15167D1*
X5151Y7383D2*
X6968D1*
X11994D2*
X14370D1*
X5342Y7135D2*
X7132D1*
X7748D2*
X14167D1*
X5397Y6886D2*
X14109D1*
X5350Y6637D2*
X14030D1*
X5159Y6389D2*
X11394D1*
X5338Y6140D2*
X11269D1*
X5397Y5891D2*
X11296D1*
X5350Y5643D2*
X11534D1*
X11971D2*
X14155D1*
X5162Y5394D2*
X14343D1*
X4278Y5145D2*
X15167D1*
X4278Y4897D2*
X15167D1*
X4278Y4648D2*
X15167D1*
X4278Y4399D2*
X15167D1*
X12082Y5739D2*
X11974Y5656D1*
X11858Y5612D1*
X11734Y5601D1*
X11611Y5623D1*
X11499Y5677D1*
X11405Y5758D1*
X11335Y5862D1*
X11296Y5980D1*
X11290Y6105D1*
X11317Y6226D1*
X11376Y6336D1*
X11461Y6427D1*
X11568Y6492D1*
X11688Y6526D1*
X11812Y6527D1*
X11933Y6494D1*
X12040Y6431D1*
X12081Y6389D1*
X13804Y6390D1*
X14151Y6734D1*
X14139Y6808D1*
X14137Y6932D1*
X14160Y7055D1*
X14208Y7170D1*
X14278Y7274D1*
X14367Y7361D1*
X14471Y7429D1*
X14588Y7475D1*
X14711Y7496D1*
X14835Y7492D1*
X14957Y7463D1*
X15070Y7410D1*
X15194Y7310D1*
X15191Y8378D1*
X12531D1*
X12565Y8342D1*
X12625Y8233D1*
X12656Y8066D1*
X12639Y7942D1*
X12590Y7827D1*
X12513Y7730D1*
X12412Y7657D1*
X12295Y7613D1*
X12191Y7603D1*
X11858Y7273D1*
X11755Y7204D1*
X11628Y7178D1*
X7773D1*
X7662Y7094D1*
X7545Y7050D1*
X7421Y7039D1*
X7298Y7060D1*
X7186Y7114D1*
X7092Y7196D1*
X7022Y7300D1*
X6983Y7418D1*
X6977Y7542D1*
X7004Y7664D1*
X7063Y7774D1*
X7148Y7865D1*
X7255Y7929D1*
X7375Y7963D1*
X7499Y7964D1*
X7620Y7932D1*
X7727Y7869D1*
X7768Y7827D1*
X11491Y7828D1*
X11727Y8061D1*
X11728Y8105D1*
X11755Y8227D1*
X11813Y8337D1*
X11853Y8379D1*
X5117Y8378D1*
X5169Y8336D1*
X5253Y8244D1*
X5316Y8136D1*
X5356Y8018D1*
X5372Y7878D1*
X5359Y7754D1*
X5322Y7635D1*
X5262Y7526D1*
X5181Y7431D1*
X5116Y7380D1*
X5169Y7336D1*
X5253Y7243D1*
X5316Y7136D1*
X5356Y7018D1*
X5372Y6878D1*
X5359Y6754D1*
X5322Y6635D1*
X5262Y6525D1*
X5181Y6431D1*
X5116Y6380D1*
X5169Y6336D1*
X5253Y6243D1*
X5316Y6136D1*
X5356Y6018D1*
X5372Y5878D1*
X5359Y5754D1*
X5322Y5635D1*
X5262Y5525D1*
X5181Y5430D1*
X5082Y5354D1*
X4971Y5298D1*
X4850Y5266D1*
X4725Y5259D1*
X4602Y5277D1*
X4485Y5320D1*
X4378Y5385D1*
X4287Y5470D1*
X4253Y5518D1*
Y4253D1*
X15191D1*
Y5436D1*
X15084Y5354D1*
X14972Y5298D1*
X14851Y5266D1*
X14727Y5259D1*
X14603Y5277D1*
X14486Y5320D1*
X14379Y5385D1*
X14288Y5470D1*
X14216Y5572D1*
X14165Y5686D1*
X14139Y5804D1*
X14082Y5773D1*
X13941Y5740D1*
X12086D1*
D19*
X14754Y5878D3*
X4753D3*
Y6878D3*
X14754D3*
X4753Y7878D3*
Y4878D3*
%LNBottomC*%
%LPC*%
D21*
X11753Y6065D3*
X7065Y4815D3*
X7441Y7503D3*
X12191Y8066D3*
X8691Y5440D3*
X11316Y6941D3*
D22*
X14754Y5878D3*
X4753D3*
Y6878D3*
X14754D3*
X4753Y7878D3*
Y4878D3*
M02*
