G04 DipTrace 2.2.0.9*
%INBottomSilk.gbr*%
%MOIN*%
%ADD35C,0.0062*%
%ADD36C,0.0046*%
%FSLAX44Y44*%
%SFA1B1*%
%OFA0B0*%
G04*
G70*
G90*
G75*
G01*
%LNBotSilk*%
%LPD*%
X10616Y8287D2*
D35*
X10635Y8326D1*
D2*
X10673Y8364D1*
D2*
X10711Y8383D1*
D2*
X10788D1*
D2*
X10826Y8364D1*
D2*
X10864Y8326D1*
D2*
X10884Y8287D1*
D2*
X10903Y8230D1*
D2*
Y8134D1*
D2*
X10884Y8077D1*
D2*
X10864Y8039D1*
D2*
X10826Y8001D1*
D2*
X10788Y7981D1*
D2*
X10711D1*
D2*
X10673Y8001D1*
D2*
X10635Y8039D1*
D2*
X10616Y8077D1*
X10492Y8249D2*
Y7981D1*
Y8134D2*
X10473Y8192D1*
D2*
X10435Y8230D1*
D2*
X10397Y8249D1*
D2*
X10339D1*
X10196D2*
X10082Y7981D1*
D2*
X10120Y7905D1*
D2*
X10158Y7866D1*
D2*
X10196Y7847D1*
D2*
X10216D1*
X9967Y8249D2*
X10082Y7981D1*
X9748Y8249D2*
X9786Y8230D1*
D2*
X9824Y8192D1*
D2*
X9843Y8134D1*
D2*
Y8096D1*
D2*
X9824Y8039D1*
D2*
X9786Y8001D1*
D2*
X9748Y7981D1*
D2*
X9690D1*
D2*
X9652Y8001D1*
D2*
X9614Y8039D1*
D2*
X9594Y8096D1*
D2*
Y8134D1*
D2*
X9614Y8192D1*
D2*
X9652Y8230D1*
D2*
X9690Y8249D1*
D2*
X9748D1*
X9164Y7981D2*
X9318Y8383D1*
D2*
X9471Y7981D1*
X9413Y8115D2*
X9222D1*
X9041Y8249D2*
Y7981D1*
Y8134D2*
X9021Y8192D1*
D2*
X8983Y8230D1*
D2*
X8945Y8249D1*
D2*
X8887D1*
X8534Y8192D2*
X8572Y8230D1*
D2*
X8611Y8249D1*
D2*
X8668D1*
D2*
X8706Y8230D1*
D2*
X8744Y8192D1*
D2*
X8764Y8134D1*
D2*
Y8096D1*
D2*
X8744Y8039D1*
D2*
X8706Y8001D1*
D2*
X8668Y7981D1*
D2*
X8611D1*
D2*
X8572Y8001D1*
D2*
X8534Y8039D1*
X8410Y8383D2*
Y7981D1*
Y8173D2*
X8353Y8230D1*
D2*
X8314Y8249D1*
D2*
X8257D1*
D2*
X8219Y8230D1*
D2*
X8200Y8173D1*
D2*
Y7981D1*
X8076Y8383D2*
X8057Y8364D1*
D2*
X8038Y8383D1*
D2*
X8057Y8402D1*
D2*
X8076Y8383D1*
X8057Y8249D2*
Y7981D1*
X7914Y8249D2*
X7799Y7981D1*
D2*
X7685Y8249D1*
X7561Y8134D2*
X7332D1*
D2*
Y8173D1*
D2*
X7351Y8211D1*
D2*
X7370Y8230D1*
D2*
X7408Y8249D1*
D2*
X7466D1*
D2*
X7504Y8230D1*
D2*
X7542Y8192D1*
D2*
X7561Y8134D1*
D2*
Y8096D1*
D2*
X7542Y8039D1*
D2*
X7504Y8001D1*
D2*
X7466Y7981D1*
D2*
X7408D1*
D2*
X7370Y8001D1*
D2*
X7332Y8039D1*
X7189Y8020D2*
X7208Y8000D1*
D2*
X7189Y7981D1*
D2*
X7170Y8000D1*
D2*
X7189Y8020D1*
X7046Y8249D2*
Y7981D1*
Y8173D2*
X6989Y8230D1*
D2*
X6950Y8249D1*
D2*
X6893D1*
D2*
X6855Y8230D1*
D2*
X6836Y8173D1*
D2*
Y7981D1*
X6712Y8134D2*
X6483D1*
D2*
Y8173D1*
D2*
X6502Y8211D1*
D2*
X6521Y8230D1*
D2*
X6559Y8249D1*
D2*
X6617D1*
D2*
X6655Y8230D1*
D2*
X6693Y8192D1*
D2*
X6712Y8134D1*
D2*
Y8096D1*
D2*
X6693Y8039D1*
D2*
X6655Y8001D1*
D2*
X6617Y7981D1*
D2*
X6559D1*
D2*
X6521Y8001D1*
D2*
X6483Y8039D1*
X6302Y8383D2*
Y8058D1*
D2*
X6283Y8001D1*
D2*
X6244Y7981D1*
D2*
X6206D1*
X6359Y8249D2*
X6225D1*
X14875Y4990D2*
D36*
Y5292D1*
D2*
X14989Y4990D1*
D2*
X15104Y5292D1*
D2*
Y4990D1*
X14610Y5191D2*
Y4990D1*
Y5148D2*
X14638Y5177D1*
D2*
X14667Y5191D1*
D2*
X14710D1*
D2*
X14739Y5177D1*
D2*
X14767Y5148D1*
D2*
X14782Y5105D1*
D2*
Y5077D1*
D2*
X14767Y5034D1*
D2*
X14739Y5005D1*
D2*
X14710Y4990D1*
D2*
X14667D1*
D2*
X14638Y5005D1*
D2*
X14610Y5034D1*
X14517Y5191D2*
X14359Y4990D1*
Y5191D2*
X14517Y4990D1*
X14267Y5292D2*
X14252Y5278D1*
D2*
X14238Y5292D1*
D2*
X14252Y5307D1*
D2*
X14267Y5292D1*
X14252Y5191D2*
Y4990D1*
X14145Y5191D2*
Y4990D1*
Y5134D2*
X14102Y5177D1*
D2*
X14073Y5191D1*
D2*
X14030D1*
D2*
X14002Y5177D1*
D2*
X13987Y5134D1*
D2*
Y4990D1*
Y5134D2*
X13944Y5177D1*
D2*
X13915Y5191D1*
D2*
X13873D1*
D2*
X13844Y5177D1*
D2*
X13829Y5134D1*
D2*
Y4990D1*
X13445Y5292D2*
Y4990D1*
D2*
X13344D1*
D2*
X13301Y5005D1*
D2*
X13272Y5034D1*
D2*
X13258Y5062D1*
D2*
X13244Y5105D1*
D2*
Y5177D1*
D2*
X13258Y5220D1*
D2*
X13272Y5249D1*
D2*
X13301Y5278D1*
D2*
X13344Y5292D1*
D2*
X13445D1*
X12950Y5249D2*
X12979Y5278D1*
D2*
X13022Y5292D1*
D2*
X13079D1*
D2*
X13122Y5278D1*
D2*
X13151Y5249D1*
D2*
Y5220D1*
D2*
X13137Y5191D1*
D2*
X13122Y5177D1*
D2*
X13094Y5163D1*
D2*
X13008Y5134D1*
D2*
X12979Y5120D1*
D2*
X12965Y5105D1*
D2*
X12950Y5077D1*
D2*
Y5034D1*
D2*
X12979Y5005D1*
D2*
X13022Y4990D1*
D2*
X13079D1*
D2*
X13122Y5005D1*
D2*
X13151Y5034D1*
X12829Y5292D2*
X12671D1*
D2*
X12757Y5177D1*
D2*
X12714D1*
D2*
X12686Y5163D1*
D2*
X12671Y5148D1*
D2*
X12657Y5105D1*
D2*
Y5077D1*
D2*
X12671Y5034D1*
D2*
X12700Y5005D1*
D2*
X12743Y4990D1*
D2*
X12786D1*
D2*
X12829Y5005D1*
D2*
X12843Y5019D1*
D2*
X12858Y5048D1*
X12392Y5292D2*
X12535D1*
D2*
X12550Y5163D1*
D2*
X12535Y5177D1*
D2*
X12492Y5191D1*
D2*
X12449D1*
D2*
X12406Y5177D1*
D2*
X12377Y5148D1*
D2*
X12363Y5105D1*
D2*
Y5077D1*
D2*
X12377Y5034D1*
D2*
X12406Y5005D1*
D2*
X12449Y4990D1*
D2*
X12492D1*
D2*
X12535Y5005D1*
D2*
X12550Y5019D1*
D2*
X12564Y5048D1*
X12184Y5292D2*
X12227Y5277D1*
D2*
X12256Y5234D1*
D2*
X12271Y5163D1*
D2*
Y5119D1*
D2*
X12256Y5048D1*
D2*
X12227Y5005D1*
D2*
X12184Y4990D1*
D2*
X12156D1*
D2*
X12113Y5005D1*
D2*
X12084Y5048D1*
D2*
X12070Y5119D1*
D2*
Y5163D1*
D2*
X12084Y5234D1*
D2*
X12113Y5277D1*
D2*
X12156Y5292D1*
D2*
X12184D1*
X12084Y5234D2*
X12256Y5048D1*
X11977Y5234D2*
X11948Y5249D1*
D2*
X11905Y5292D1*
D2*
Y4990D1*
X11521Y5292D2*
Y4990D1*
D2*
X11420D1*
D2*
X11377Y5005D1*
D2*
X11348Y5034D1*
D2*
X11334Y5062D1*
D2*
X11320Y5105D1*
D2*
Y5177D1*
D2*
X11334Y5220D1*
D2*
X11348Y5249D1*
D2*
X11377Y5278D1*
D2*
X11420Y5292D1*
D2*
X11521D1*
X11227D2*
X11213Y5278D1*
D2*
X11198Y5292D1*
D2*
X11213Y5307D1*
D2*
X11227Y5292D1*
X11213Y5191D2*
Y4990D1*
X10934Y5177D2*
Y4947D1*
D2*
X10948Y4905D1*
D2*
X10962Y4890D1*
D2*
X10991Y4876D1*
D2*
X11034D1*
D2*
X11063Y4890D1*
X10934Y5134D2*
X10962Y5163D1*
D2*
X10991Y5177D1*
D2*
X11034D1*
D2*
X11063Y5163D1*
D2*
X11091Y5134D1*
D2*
X11106Y5091D1*
D2*
Y5062D1*
D2*
X11091Y5019D1*
D2*
X11063Y4990D1*
D2*
X11034Y4976D1*
D2*
X10991D1*
D2*
X10962Y4990D1*
D2*
X10934Y5019D1*
X10841Y5292D2*
X10827Y5278D1*
D2*
X10812Y5292D1*
D2*
X10827Y5307D1*
D2*
X10841Y5292D1*
X10827Y5191D2*
Y4990D1*
X10676Y5292D2*
Y5048D1*
D2*
X10662Y5005D1*
D2*
X10633Y4990D1*
D2*
X10605D1*
X10719Y5191D2*
X10619D1*
X10340D2*
Y4990D1*
Y5148D2*
X10368Y5177D1*
D2*
X10397Y5191D1*
D2*
X10440D1*
D2*
X10469Y5177D1*
D2*
X10497Y5148D1*
D2*
X10512Y5105D1*
D2*
Y5077D1*
D2*
X10497Y5034D1*
D2*
X10469Y5005D1*
D2*
X10440Y4990D1*
D2*
X10397D1*
D2*
X10368Y5005D1*
D2*
X10340Y5034D1*
X10247Y5292D2*
Y4990D1*
X9863Y5134D2*
X9734D1*
D2*
X9691Y5148D1*
D2*
X9676Y5163D1*
D2*
X9662Y5191D1*
D2*
Y5235D1*
D2*
X9676Y5263D1*
D2*
X9691Y5278D1*
D2*
X9734Y5292D1*
D2*
X9863D1*
D2*
Y4990D1*
X9498Y5191D2*
X9526Y5177D1*
D2*
X9555Y5148D1*
D2*
X9569Y5105D1*
D2*
Y5077D1*
D2*
X9555Y5034D1*
D2*
X9526Y5005D1*
D2*
X9498Y4990D1*
D2*
X9455D1*
D2*
X9426Y5005D1*
D2*
X9397Y5034D1*
D2*
X9383Y5077D1*
D2*
Y5105D1*
D2*
X9397Y5148D1*
D2*
X9426Y5177D1*
D2*
X9455Y5191D1*
D2*
X9498D1*
X9247Y5292D2*
Y5048D1*
D2*
X9233Y5005D1*
D2*
X9204Y4990D1*
D2*
X9175D1*
X9290Y5191D2*
X9190D1*
X9083Y5105D2*
X8911D1*
D2*
Y5134D1*
D2*
X8925Y5163D1*
D2*
X8939Y5177D1*
D2*
X8968Y5191D1*
D2*
X9011D1*
D2*
X9040Y5177D1*
D2*
X9068Y5148D1*
D2*
X9083Y5105D1*
D2*
Y5077D1*
D2*
X9068Y5034D1*
D2*
X9040Y5005D1*
D2*
X9011Y4990D1*
D2*
X8968D1*
D2*
X8939Y5005D1*
D2*
X8911Y5034D1*
X8818Y5191D2*
Y4990D1*
Y5134D2*
X8775Y5177D1*
D2*
X8746Y5191D1*
D2*
X8703D1*
D2*
X8674Y5177D1*
D2*
X8660Y5134D1*
D2*
Y4990D1*
X8524Y5292D2*
Y5048D1*
D2*
X8510Y5005D1*
D2*
X8481Y4990D1*
D2*
X8453D1*
X8568Y5191D2*
X8467D1*
X8360Y5292D2*
X8346Y5278D1*
D2*
X8331Y5292D1*
D2*
X8346Y5307D1*
D2*
X8360Y5292D1*
X8346Y5191D2*
Y4990D1*
X8167Y5191D2*
X8196Y5177D1*
D2*
X8224Y5148D1*
D2*
X8239Y5105D1*
D2*
Y5077D1*
D2*
X8224Y5034D1*
D2*
X8196Y5005D1*
D2*
X8167Y4990D1*
D2*
X8124D1*
D2*
X8095Y5005D1*
D2*
X8067Y5034D1*
D2*
X8052Y5077D1*
D2*
Y5105D1*
D2*
X8067Y5148D1*
D2*
X8095Y5177D1*
D2*
X8124Y5191D1*
D2*
X8167D1*
X7959D2*
Y4990D1*
Y5134D2*
X7916Y5177D1*
D2*
X7887Y5191D1*
D2*
X7845D1*
D2*
X7816Y5177D1*
D2*
X7801Y5134D1*
D2*
Y4990D1*
Y5134D2*
X7758Y5177D1*
D2*
X7730Y5191D1*
D2*
X7687D1*
D2*
X7658Y5177D1*
D2*
X7643Y5134D1*
D2*
Y4990D1*
X7551Y5105D2*
X7379D1*
D2*
Y5134D1*
D2*
X7393Y5163D1*
D2*
X7407Y5177D1*
D2*
X7436Y5191D1*
D2*
X7479D1*
D2*
X7508Y5177D1*
D2*
X7536Y5148D1*
D2*
X7551Y5105D1*
D2*
Y5077D1*
D2*
X7536Y5034D1*
D2*
X7508Y5005D1*
D2*
X7479Y4990D1*
D2*
X7436D1*
D2*
X7407Y5005D1*
D2*
X7379Y5034D1*
X7243Y5292D2*
Y5048D1*
D2*
X7229Y5005D1*
D2*
X7200Y4990D1*
D2*
X7171D1*
X7286Y5191D2*
X7185D1*
X7079Y5105D2*
X6906D1*
D2*
Y5134D1*
D2*
X6921Y5163D1*
D2*
X6935Y5177D1*
D2*
X6964Y5191D1*
D2*
X7007D1*
D2*
X7035Y5177D1*
D2*
X7064Y5148D1*
D2*
X7079Y5105D1*
D2*
Y5077D1*
D2*
X7064Y5034D1*
D2*
X7035Y5005D1*
D2*
X7007Y4990D1*
D2*
X6964D1*
D2*
X6935Y5005D1*
D2*
X6906Y5034D1*
X6814Y5191D2*
Y4990D1*
Y5105D2*
X6799Y5148D1*
D2*
X6771Y5177D1*
D2*
X6742Y5191D1*
D2*
X6699D1*
X14959Y4729D2*
X15102D1*
D2*
X15117Y4600D1*
D2*
X15102Y4614D1*
D2*
X15059Y4629D1*
D2*
X15017D1*
D2*
X14973Y4614D1*
D2*
X14945Y4586D1*
D2*
X14930Y4543D1*
D2*
Y4514D1*
D2*
X14945Y4471D1*
D2*
X14973Y4442D1*
D2*
X15017Y4428D1*
D2*
X15059D1*
D2*
X15102Y4442D1*
D2*
X15117Y4457D1*
D2*
X15131Y4485D1*
X14838Y4729D2*
X14723Y4428D1*
D2*
X14608Y4729D1*
X14224D2*
Y4428D1*
X14131Y4629D2*
Y4428D1*
Y4572D2*
X14088Y4615D1*
D2*
X14059Y4629D1*
D2*
X14017D1*
D2*
X13988Y4615D1*
D2*
X13973Y4572D1*
D2*
Y4428D1*
X13852Y4442D2*
X13867Y4428D1*
D2*
X13881Y4442D1*
D2*
X13867Y4457D1*
D2*
X13852Y4442D1*
D2*
Y4414D1*
D2*
X13867Y4385D1*
D2*
X13881Y4371D1*
X13468Y4729D2*
X13353Y4428D1*
D2*
X13238Y4729D1*
X13017Y4708D2*
Y4449D1*
X13146Y4578D2*
X12887D1*
X12331Y4729D2*
X12474D1*
D2*
X12488Y4600D1*
D2*
X12474Y4614D1*
D2*
X12431Y4629D1*
D2*
X12388D1*
D2*
X12345Y4614D1*
D2*
X12316Y4586D1*
D2*
X12302Y4543D1*
D2*
Y4514D1*
D2*
X12316Y4471D1*
D2*
X12345Y4442D1*
D2*
X12388Y4428D1*
D2*
X12431D1*
D2*
X12474Y4442D1*
D2*
X12488Y4457D1*
D2*
X12503Y4485D1*
X12209Y4579D2*
X12044D1*
X11951Y4672D2*
X11922Y4686D1*
D2*
X11879Y4729D1*
D2*
Y4428D1*
X11614Y4729D2*
X11758D1*
D2*
X11772Y4600D1*
D2*
X11758Y4614D1*
D2*
X11714Y4629D1*
D2*
X11672D1*
D2*
X11629Y4614D1*
D2*
X11600Y4586D1*
D2*
X11585Y4543D1*
D2*
Y4514D1*
D2*
X11600Y4471D1*
D2*
X11629Y4442D1*
D2*
X11672Y4428D1*
D2*
X11714D1*
D2*
X11758Y4442D1*
D2*
X11772Y4457D1*
D2*
X11786Y4485D1*
X11493Y4729D2*
X11378Y4428D1*
D2*
X11263Y4729D1*
X11156Y4629D2*
X11171Y4614D1*
D2*
X11156Y4600D1*
D2*
X11142Y4614D1*
D2*
X11156Y4629D1*
X11142Y4442D2*
X11156Y4428D1*
D2*
X11171Y4442D1*
D2*
X11156Y4457D1*
D2*
X11142Y4442D1*
D2*
Y4414D1*
D2*
X11156Y4385D1*
D2*
X11171Y4371D1*
X10758Y4729D2*
Y4428D1*
X10650Y4657D2*
Y4672D1*
D2*
X10636Y4701D1*
D2*
X10622Y4715D1*
D2*
X10593Y4729D1*
D2*
X10536D1*
D2*
X10507Y4715D1*
D2*
X10493Y4701D1*
D2*
X10478Y4672D1*
D2*
Y4643D1*
D2*
X10493Y4614D1*
D2*
X10521Y4572D1*
D2*
X10665Y4428D1*
D2*
X10464D1*
X10156Y4658D2*
X10170Y4686D1*
D2*
X10199Y4715D1*
D2*
X10228Y4729D1*
D2*
X10285D1*
D2*
X10314Y4715D1*
D2*
X10343Y4686D1*
D2*
X10357Y4658D1*
D2*
X10371Y4615D1*
D2*
Y4543D1*
D2*
X10357Y4500D1*
D2*
X10343Y4471D1*
D2*
X10314Y4443D1*
D2*
X10285Y4428D1*
D2*
X10228D1*
D2*
X10199Y4443D1*
D2*
X10170Y4471D1*
D2*
X10156Y4500D1*
X10049Y4629D2*
X10064Y4614D1*
D2*
X10049Y4600D1*
D2*
X10035Y4614D1*
D2*
X10049Y4629D1*
X10035Y4442D2*
X10049Y4428D1*
D2*
X10064Y4442D1*
D2*
X10049Y4457D1*
D2*
X10035Y4442D1*
D2*
Y4414D1*
D2*
X10049Y4385D1*
D2*
X10064Y4371D1*
X9650Y4672D2*
X9622Y4686D1*
D2*
X9579Y4729D1*
D2*
Y4428D1*
X9400Y4729D2*
X9443Y4715D1*
D2*
X9472Y4672D1*
D2*
X9486Y4600D1*
D2*
Y4557D1*
D2*
X9472Y4485D1*
D2*
X9443Y4442D1*
D2*
X9400Y4428D1*
D2*
X9371D1*
D2*
X9328Y4442D1*
D2*
X9299Y4485D1*
D2*
X9285Y4557D1*
D2*
Y4600D1*
D2*
X9299Y4672D1*
D2*
X9328Y4715D1*
D2*
X9371Y4729D1*
D2*
X9400D1*
X9299Y4672D2*
X9472Y4485D1*
X9192Y4729D2*
Y4428D1*
X8991Y4729D2*
X9192Y4528D1*
X9121Y4600D2*
X8991Y4428D1*
X8535Y4629D2*
X8564Y4615D1*
D2*
X8593Y4586D1*
D2*
X8607Y4543D1*
D2*
Y4514D1*
D2*
X8593Y4471D1*
D2*
X8564Y4443D1*
D2*
X8535Y4428D1*
D2*
X8492D1*
D2*
X8463Y4443D1*
D2*
X8435Y4471D1*
D2*
X8420Y4514D1*
D2*
Y4543D1*
D2*
X8435Y4586D1*
D2*
X8463Y4615D1*
D2*
X8492Y4629D1*
D2*
X8535D1*
X8328Y4729D2*
Y4428D1*
Y4572D2*
X8285Y4615D1*
D2*
X8256Y4629D1*
D2*
X8213D1*
D2*
X8184Y4615D1*
D2*
X8170Y4572D1*
D2*
Y4428D1*
X8077Y4629D2*
Y4428D1*
Y4572D2*
X8034Y4615D1*
D2*
X8005Y4629D1*
D2*
X7963D1*
D2*
X7934Y4615D1*
D2*
X7919Y4572D1*
D2*
Y4428D1*
Y4572D2*
X7876Y4615D1*
D2*
X7847Y4629D1*
D2*
X7805D1*
D2*
X7776Y4615D1*
D2*
X7761Y4572D1*
D2*
Y4428D1*
M02*
