G04 DipTrace 2.2.0.9*
%INBottomSilk.gbr*%
%MOIN*%
%ADD10C,0.0098*%
%ADD12C,0.003*%
%ADD34C,0.0077*%
%FSLAX44Y44*%
%SFA1B1*%
%OFA0B0*%
G04*
G70*
G90*
G75*
G01*
%LNBotSilk*%
%LPD*%
X10634Y7319D2*
D10*
X10123D1*
X7869Y6861D2*
D34*
X7654D1*
D2*
X7582Y6886D1*
D2*
X7558Y6909D1*
D2*
X7534Y6957D1*
D2*
Y7005D1*
D2*
X7558Y7053D1*
D2*
X7582Y7077D1*
D2*
X7654Y7101D1*
D2*
X7869D1*
D2*
Y6598D1*
X7702Y6861D2*
X7534Y6598D1*
X7380Y7005D2*
X7332Y7029D1*
D2*
X7260Y7100D1*
D2*
Y6598D1*
X9479Y6861D2*
X9264D1*
D2*
X9192Y6886D1*
D2*
X9168Y6909D1*
D2*
X9144Y6957D1*
D2*
Y7005D1*
D2*
X9168Y7053D1*
D2*
X9192Y7077D1*
D2*
X9264Y7101D1*
D2*
X9479D1*
D2*
Y6598D1*
X9311Y6861D2*
X9144Y6598D1*
X8965Y6981D2*
Y7005D1*
D2*
X8941Y7053D1*
D2*
X8918Y7076D1*
D2*
X8870Y7100D1*
D2*
X8774D1*
D2*
X8726Y7076D1*
D2*
X8703Y7053D1*
D2*
X8678Y7005D1*
D2*
Y6957D1*
D2*
X8703Y6909D1*
D2*
X8750Y6838D1*
D2*
X8990Y6598D1*
D2*
X8655D1*
X10336Y5613D2*
X10360Y5660D1*
D2*
X10408Y5709D1*
D2*
X10456Y5732D1*
D2*
X10551D1*
D2*
X10599Y5709D1*
D2*
X10647Y5660D1*
D2*
X10671Y5613D1*
D2*
X10695Y5541D1*
D2*
Y5421D1*
D2*
X10671Y5350D1*
D2*
X10647Y5302D1*
D2*
X10599Y5254D1*
D2*
X10551Y5230D1*
D2*
X10456D1*
D2*
X10408Y5254D1*
D2*
X10360Y5302D1*
D2*
X10336Y5350D1*
X10182Y5636D2*
X10134Y5660D1*
D2*
X10062Y5732D1*
D2*
Y5230D1*
X10833Y5028D2*
D12*
X10842Y5047D1*
D2*
X10862Y5066D1*
D2*
X10881Y5075D1*
D2*
X10919D1*
D2*
X10938Y5066D1*
D2*
X10957Y5047D1*
D2*
X10967Y5028D1*
D2*
X10976Y4999D1*
D2*
Y4951D1*
D2*
X10967Y4922D1*
D2*
X10957Y4903D1*
D2*
X10938Y4884D1*
D2*
X10919Y4874D1*
D2*
X10881D1*
D2*
X10862Y4884D1*
D2*
X10842Y4903D1*
D2*
X10833Y4922D1*
X10771Y5008D2*
Y4874D1*
Y4951D2*
X10761Y4980D1*
D2*
X10742Y4999D1*
D2*
X10723Y5008D1*
D2*
X10694D1*
X10623D2*
X10566Y4874D1*
D2*
X10585Y4836D1*
D2*
X10604Y4817D1*
D2*
X10623Y4807D1*
D2*
X10633D1*
X10508Y5008D2*
X10566Y4874D1*
X10399Y5008D2*
X10418Y4999D1*
D2*
X10437Y4980D1*
D2*
X10446Y4951D1*
D2*
Y4932D1*
D2*
X10437Y4903D1*
D2*
X10418Y4884D1*
D2*
X10399Y4874D1*
D2*
X10370D1*
D2*
X10351Y4884D1*
D2*
X10332Y4903D1*
D2*
X10322Y4932D1*
D2*
Y4951D1*
D2*
X10332Y4980D1*
D2*
X10351Y4999D1*
D2*
X10370Y5008D1*
D2*
X10399D1*
X10107Y4874D2*
X10184Y5075D1*
D2*
X10260Y4874D1*
X10232Y4941D2*
X10136D1*
X10045Y5008D2*
Y4874D1*
Y4951D2*
X10036Y4980D1*
D2*
X10017Y4999D1*
D2*
X9997Y5008D1*
D2*
X9969D1*
X9792Y4980D2*
X9811Y4999D1*
D2*
X9830Y5008D1*
D2*
X9859D1*
D2*
X9878Y4999D1*
D2*
X9897Y4980D1*
D2*
X9907Y4951D1*
D2*
Y4932D1*
D2*
X9897Y4903D1*
D2*
X9878Y4884D1*
D2*
X9859Y4874D1*
D2*
X9830D1*
D2*
X9811Y4884D1*
D2*
X9792Y4903D1*
X9730Y5075D2*
Y4874D1*
Y4970D2*
X9701Y4999D1*
D2*
X9682Y5008D1*
D2*
X9653D1*
D2*
X9634Y4999D1*
D2*
X9625Y4970D1*
D2*
Y4874D1*
X9563Y5075D2*
X9554Y5066D1*
D2*
X9544Y5075D1*
D2*
X9554Y5085D1*
D2*
X9563Y5075D1*
X9554Y5008D2*
Y4874D1*
X9482Y5008D2*
X9425Y4874D1*
D2*
X9367Y5008D1*
X9306Y4951D2*
X9191D1*
D2*
Y4970D1*
D2*
X9200Y4989D1*
D2*
X9210Y4999D1*
D2*
X9229Y5008D1*
D2*
X9258D1*
D2*
X9277Y4999D1*
D2*
X9296Y4980D1*
D2*
X9306Y4951D1*
D2*
Y4932D1*
D2*
X9296Y4903D1*
D2*
X9277Y4884D1*
D2*
X9258Y4874D1*
D2*
X9229D1*
D2*
X9210Y4884D1*
D2*
X9191Y4903D1*
X9120Y4894D2*
X9129Y4884D1*
D2*
X9120Y4874D1*
D2*
X9110Y4884D1*
D2*
X9120Y4894D1*
X9048Y5008D2*
Y4874D1*
Y4970D2*
X9019Y4999D1*
D2*
X9000Y5008D1*
D2*
X8972D1*
D2*
X8952Y4999D1*
D2*
X8943Y4970D1*
D2*
Y4874D1*
X8881Y4951D2*
X8766D1*
D2*
Y4970D1*
D2*
X8776Y4989D1*
D2*
X8785Y4999D1*
D2*
X8805Y5008D1*
D2*
X8833D1*
D2*
X8852Y4999D1*
D2*
X8872Y4980D1*
D2*
X8881Y4951D1*
D2*
Y4932D1*
D2*
X8872Y4903D1*
D2*
X8852Y4884D1*
D2*
X8833Y4874D1*
D2*
X8805D1*
D2*
X8785Y4884D1*
D2*
X8766Y4903D1*
X8676Y5075D2*
Y4913D1*
D2*
X8666Y4884D1*
D2*
X8647Y4874D1*
D2*
X8628D1*
X8705Y5008D2*
X8638D1*
X10914Y4499D2*
Y4700D1*
D2*
X10991Y4499D1*
D2*
X11067Y4700D1*
D2*
Y4499D1*
X10738Y4633D2*
Y4499D1*
Y4605D2*
X10757Y4624D1*
D2*
X10776Y4633D1*
D2*
X10805D1*
D2*
X10824Y4624D1*
D2*
X10843Y4605D1*
D2*
X10853Y4576D1*
D2*
Y4557D1*
D2*
X10843Y4528D1*
D2*
X10824Y4509D1*
D2*
X10805Y4499D1*
D2*
X10776D1*
D2*
X10757Y4509D1*
D2*
X10738Y4528D1*
X10676Y4633D2*
X10571Y4499D1*
Y4633D2*
X10676Y4499D1*
X10509Y4700D2*
X10500Y4691D1*
D2*
X10490Y4700D1*
D2*
X10500Y4710D1*
D2*
X10509Y4700D1*
X10500Y4633D2*
Y4499D1*
X10428Y4633D2*
Y4499D1*
Y4595D2*
X10399Y4624D1*
D2*
X10380Y4633D1*
D2*
X10352D1*
D2*
X10332Y4624D1*
D2*
X10323Y4595D1*
D2*
Y4499D1*
Y4595D2*
X10294Y4624D1*
D2*
X10275Y4633D1*
D2*
X10246D1*
D2*
X10227Y4624D1*
D2*
X10217Y4595D1*
D2*
Y4499D1*
X9961Y4700D2*
Y4499D1*
D2*
X9894D1*
D2*
X9866Y4509D1*
D2*
X9846Y4528D1*
D2*
X9837Y4547D1*
D2*
X9827Y4576D1*
D2*
Y4624D1*
D2*
X9837Y4653D1*
D2*
X9846Y4672D1*
D2*
X9866Y4691D1*
D2*
X9894Y4700D1*
D2*
X9961D1*
X9632Y4672D2*
X9651Y4691D1*
D2*
X9679Y4700D1*
D2*
X9718D1*
D2*
X9746Y4691D1*
D2*
X9766Y4672D1*
D2*
Y4653D1*
D2*
X9756Y4633D1*
D2*
X9746Y4624D1*
D2*
X9727Y4614D1*
D2*
X9670Y4595D1*
D2*
X9651Y4586D1*
D2*
X9641Y4576D1*
D2*
X9632Y4557D1*
D2*
Y4528D1*
D2*
X9651Y4509D1*
D2*
X9679Y4499D1*
D2*
X9718D1*
D2*
X9746Y4509D1*
D2*
X9766Y4528D1*
X9551Y4700D2*
X9446D1*
D2*
X9503Y4624D1*
D2*
X9474D1*
D2*
X9455Y4614D1*
D2*
X9446Y4605D1*
D2*
X9436Y4576D1*
D2*
Y4557D1*
D2*
X9446Y4528D1*
D2*
X9465Y4509D1*
D2*
X9493Y4499D1*
D2*
X9522D1*
D2*
X9551Y4509D1*
D2*
X9560Y4519D1*
D2*
X9570Y4538D1*
X9259Y4700D2*
X9355D1*
D2*
X9364Y4614D1*
D2*
X9355Y4624D1*
D2*
X9326Y4633D1*
D2*
X9298D1*
D2*
X9269Y4624D1*
D2*
X9250Y4605D1*
D2*
X9240Y4576D1*
D2*
Y4557D1*
D2*
X9250Y4528D1*
D2*
X9269Y4509D1*
D2*
X9298Y4499D1*
D2*
X9326D1*
D2*
X9355Y4509D1*
D2*
X9364Y4519D1*
D2*
X9374Y4538D1*
X9121Y4700D2*
X9150Y4691D1*
D2*
X9169Y4662D1*
D2*
X9178Y4614D1*
D2*
Y4585D1*
D2*
X9169Y4538D1*
D2*
X9150Y4509D1*
D2*
X9121Y4499D1*
D2*
X9102D1*
D2*
X9073Y4509D1*
D2*
X9054Y4538D1*
D2*
X9044Y4585D1*
D2*
Y4614D1*
D2*
X9054Y4662D1*
D2*
X9073Y4691D1*
D2*
X9102Y4700D1*
D2*
X9121D1*
X9054Y4662D2*
X9169Y4538D1*
X8973Y4652D2*
Y4662D1*
D2*
X8963Y4681D1*
D2*
X8954Y4691D1*
D2*
X8935Y4700D1*
D2*
X8896D1*
D2*
X8877Y4691D1*
D2*
X8868Y4681D1*
D2*
X8858Y4662D1*
D2*
Y4643D1*
D2*
X8868Y4624D1*
D2*
X8887Y4595D1*
D2*
X8983Y4499D1*
D2*
X8849D1*
X8592Y4700D2*
Y4499D1*
D2*
X8526D1*
D2*
X8497Y4509D1*
D2*
X8478Y4528D1*
D2*
X8468Y4547D1*
D2*
X8459Y4576D1*
D2*
Y4624D1*
D2*
X8468Y4653D1*
D2*
X8478Y4672D1*
D2*
X8497Y4691D1*
D2*
X8526Y4700D1*
D2*
X8592D1*
X8397D2*
X8387Y4691D1*
D2*
X8378Y4700D1*
D2*
X8387Y4710D1*
D2*
X8397Y4700D1*
X8387Y4633D2*
Y4499D1*
X8201Y4624D2*
Y4471D1*
D2*
X8211Y4442D1*
D2*
X8220Y4432D1*
D2*
X8239Y4423D1*
D2*
X8268D1*
D2*
X8287Y4432D1*
X8201Y4595D2*
X8220Y4614D1*
D2*
X8239Y4624D1*
D2*
X8268D1*
D2*
X8287Y4614D1*
D2*
X8306Y4595D1*
D2*
X8316Y4566D1*
D2*
Y4547D1*
D2*
X8306Y4519D1*
D2*
X8287Y4499D1*
D2*
X8268Y4490D1*
D2*
X8239D1*
D2*
X8220Y4499D1*
D2*
X8201Y4519D1*
X8139Y4700D2*
X8130Y4691D1*
D2*
X8120Y4700D1*
D2*
X8130Y4710D1*
D2*
X8139Y4700D1*
X8130Y4633D2*
Y4499D1*
X8030Y4700D2*
Y4538D1*
D2*
X8020Y4509D1*
D2*
X8001Y4499D1*
D2*
X7982D1*
X8058Y4633D2*
X7991D1*
X7805D2*
Y4499D1*
Y4605D2*
X7824Y4624D1*
D2*
X7844Y4633D1*
D2*
X7872D1*
D2*
X7891Y4624D1*
D2*
X7910Y4605D1*
D2*
X7920Y4576D1*
D2*
Y4557D1*
D2*
X7910Y4528D1*
D2*
X7891Y4509D1*
D2*
X7872Y4499D1*
D2*
X7844D1*
D2*
X7824Y4509D1*
D2*
X7805Y4528D1*
X7744Y4700D2*
Y4499D1*
X7487Y4595D2*
X7401D1*
D2*
X7373Y4605D1*
D2*
X7363Y4614D1*
D2*
X7353Y4633D1*
D2*
Y4662D1*
D2*
X7363Y4681D1*
D2*
X7373Y4691D1*
D2*
X7401Y4700D1*
D2*
X7487D1*
D2*
Y4499D1*
X7244Y4633D2*
X7263Y4624D1*
D2*
X7282Y4605D1*
D2*
X7292Y4576D1*
D2*
Y4557D1*
D2*
X7282Y4528D1*
D2*
X7263Y4509D1*
D2*
X7244Y4499D1*
D2*
X7215D1*
D2*
X7196Y4509D1*
D2*
X7177Y4528D1*
D2*
X7167Y4557D1*
D2*
Y4576D1*
D2*
X7177Y4605D1*
D2*
X7196Y4624D1*
D2*
X7215Y4633D1*
D2*
X7244D1*
X7077Y4700D2*
Y4538D1*
D2*
X7067Y4509D1*
D2*
X7048Y4499D1*
D2*
X7029D1*
X7105Y4633D2*
X7038D1*
X6967Y4576D2*
X6852D1*
D2*
Y4595D1*
D2*
X6862Y4614D1*
D2*
X6871Y4624D1*
D2*
X6891Y4633D1*
D2*
X6919D1*
D2*
X6938Y4624D1*
D2*
X6958Y4605D1*
D2*
X6967Y4576D1*
D2*
Y4557D1*
D2*
X6958Y4528D1*
D2*
X6938Y4509D1*
D2*
X6919Y4499D1*
D2*
X6891D1*
D2*
X6871Y4509D1*
D2*
X6852Y4528D1*
X6791Y4633D2*
Y4499D1*
Y4595D2*
X6762Y4624D1*
D2*
X6743Y4633D1*
D2*
X6714D1*
D2*
X6695Y4624D1*
D2*
X6685Y4595D1*
D2*
Y4499D1*
X6595Y4700D2*
Y4538D1*
D2*
X6585Y4509D1*
D2*
X6566Y4499D1*
D2*
X6547D1*
X6624Y4633D2*
X6557D1*
X6485Y4700D2*
X6476Y4691D1*
D2*
X6466Y4700D1*
D2*
X6476Y4710D1*
D2*
X6485Y4700D1*
X6476Y4633D2*
Y4499D1*
X6357Y4633D2*
X6376Y4624D1*
D2*
X6395Y4605D1*
D2*
X6404Y4576D1*
D2*
Y4557D1*
D2*
X6395Y4528D1*
D2*
X6376Y4509D1*
D2*
X6357Y4499D1*
D2*
X6328D1*
D2*
X6309Y4509D1*
D2*
X6290Y4528D1*
D2*
X6280Y4557D1*
D2*
Y4576D1*
D2*
X6290Y4605D1*
D2*
X6309Y4624D1*
D2*
X6328Y4633D1*
D2*
X6357D1*
X6218D2*
Y4499D1*
Y4595D2*
X6189Y4624D1*
D2*
X6170Y4633D1*
D2*
X6142D1*
D2*
X6122Y4624D1*
D2*
X6113Y4595D1*
D2*
Y4499D1*
Y4595D2*
X6084Y4624D1*
D2*
X6065Y4633D1*
D2*
X6036D1*
D2*
X6017Y4624D1*
D2*
X6008Y4595D1*
D2*
Y4499D1*
X5946Y4576D2*
X5831D1*
D2*
Y4595D1*
D2*
X5841Y4614D1*
D2*
X5850Y4624D1*
D2*
X5869Y4633D1*
D2*
X5898D1*
D2*
X5917Y4624D1*
D2*
X5936Y4605D1*
D2*
X5946Y4576D1*
D2*
Y4557D1*
D2*
X5936Y4528D1*
D2*
X5917Y4509D1*
D2*
X5898Y4499D1*
D2*
X5869D1*
D2*
X5850Y4509D1*
D2*
X5831Y4528D1*
X5741Y4700D2*
Y4538D1*
D2*
X5731Y4509D1*
D2*
X5712Y4499D1*
D2*
X5693D1*
X5769Y4633D2*
X5702D1*
X5631Y4576D2*
X5516D1*
D2*
Y4595D1*
D2*
X5526Y4614D1*
D2*
X5535Y4624D1*
D2*
X5555Y4633D1*
D2*
X5583D1*
D2*
X5602Y4624D1*
D2*
X5622Y4605D1*
D2*
X5631Y4576D1*
D2*
Y4557D1*
D2*
X5622Y4528D1*
D2*
X5602Y4509D1*
D2*
X5583Y4499D1*
D2*
X5555D1*
D2*
X5535Y4509D1*
D2*
X5516Y4528D1*
X5455Y4633D2*
Y4499D1*
Y4576D2*
X5445Y4605D1*
D2*
X5426Y4624D1*
D2*
X5407Y4633D1*
D2*
X5378D1*
X10541Y4388D2*
X10637D1*
D2*
X10646Y4302D1*
D2*
X10637Y4311D1*
D2*
X10608Y4321D1*
D2*
X10579D1*
D2*
X10551Y4311D1*
D2*
X10532Y4292D1*
D2*
X10522Y4263D1*
D2*
Y4244D1*
D2*
X10532Y4216D1*
D2*
X10551Y4196D1*
D2*
X10579Y4187D1*
D2*
X10608D1*
D2*
X10637Y4196D1*
D2*
X10646Y4206D1*
D2*
X10656Y4225D1*
X10460Y4388D2*
X10384Y4187D1*
D2*
X10307Y4388D1*
X10051D2*
Y4187D1*
X9989Y4321D2*
Y4187D1*
Y4283D2*
X9961Y4311D1*
D2*
X9941Y4321D1*
D2*
X9913D1*
D2*
X9894Y4311D1*
D2*
X9884Y4283D1*
D2*
Y4187D1*
X9803Y4196D2*
X9813Y4187D1*
D2*
X9822Y4196D1*
D2*
X9813Y4206D1*
D2*
X9803Y4196D1*
D2*
Y4177D1*
D2*
X9813Y4158D1*
D2*
X9822Y4149D1*
X9547Y4388D2*
X9470Y4187D1*
D2*
X9394Y4388D1*
X9246Y4373D2*
Y4201D1*
X9332Y4287D2*
X9160D1*
X9089Y4321D2*
X9098Y4311D1*
D2*
X9089Y4302D1*
D2*
X9079Y4311D1*
D2*
X9089Y4321D1*
Y4206D2*
X9098Y4196D1*
D2*
X9089Y4187D1*
D2*
X9079Y4196D1*
D2*
X9089Y4206D1*
X8708Y4388D2*
X8804D1*
D2*
X8813Y4302D1*
D2*
X8804Y4311D1*
D2*
X8775Y4321D1*
D2*
X8746D1*
D2*
X8718Y4311D1*
D2*
X8698Y4292D1*
D2*
X8689Y4263D1*
D2*
Y4244D1*
D2*
X8698Y4216D1*
D2*
X8718Y4196D1*
D2*
X8746Y4187D1*
D2*
X8775D1*
D2*
X8804Y4196D1*
D2*
X8813Y4206D1*
D2*
X8823Y4225D1*
X8627Y4287D2*
X8517D1*
X8455Y4349D2*
X8436Y4359D1*
D2*
X8407Y4388D1*
D2*
Y4187D1*
X8230Y4388D2*
X8326D1*
D2*
X8335Y4302D1*
D2*
X8326Y4311D1*
D2*
X8297Y4321D1*
D2*
X8269D1*
D2*
X8240Y4311D1*
D2*
X8221Y4292D1*
D2*
X8211Y4263D1*
D2*
Y4244D1*
D2*
X8221Y4216D1*
D2*
X8240Y4196D1*
D2*
X8269Y4187D1*
D2*
X8297D1*
D2*
X8326Y4196D1*
D2*
X8335Y4206D1*
D2*
X8345Y4225D1*
X8149Y4388D2*
X8073Y4187D1*
D2*
X7996Y4388D1*
X7925Y4321D2*
X7935Y4311D1*
D2*
X7925Y4302D1*
D2*
X7915Y4311D1*
D2*
X7925Y4321D1*
X7915Y4196D2*
X7925Y4187D1*
D2*
X7935Y4196D1*
D2*
X7925Y4206D1*
D2*
X7915Y4196D1*
D2*
Y4177D1*
D2*
X7925Y4158D1*
D2*
X7935Y4149D1*
X7659Y4388D2*
Y4187D1*
X7588Y4340D2*
Y4349D1*
D2*
X7578Y4369D1*
D2*
X7569Y4378D1*
D2*
X7549Y4388D1*
D2*
X7511D1*
D2*
X7492Y4378D1*
D2*
X7483Y4369D1*
D2*
X7473Y4349D1*
D2*
Y4330D1*
D2*
X7483Y4311D1*
D2*
X7502Y4283D1*
D2*
X7597Y4187D1*
D2*
X7463D1*
X7258Y4340D2*
X7268Y4359D1*
D2*
X7287Y4378D1*
D2*
X7306Y4388D1*
D2*
X7344D1*
D2*
X7363Y4378D1*
D2*
X7383Y4359D1*
D2*
X7392Y4340D1*
D2*
X7402Y4311D1*
D2*
Y4263D1*
D2*
X7392Y4235D1*
D2*
X7383Y4216D1*
D2*
X7363Y4197D1*
D2*
X7344Y4187D1*
D2*
X7306D1*
D2*
X7287Y4197D1*
D2*
X7268Y4216D1*
D2*
X7258Y4235D1*
X7187Y4321D2*
X7197Y4311D1*
D2*
X7187Y4302D1*
D2*
X7177Y4311D1*
D2*
X7187Y4321D1*
X7177Y4196D2*
X7187Y4187D1*
D2*
X7197Y4196D1*
D2*
X7187Y4206D1*
D2*
X7177Y4196D1*
D2*
Y4177D1*
D2*
X7187Y4158D1*
D2*
X7197Y4149D1*
X6921Y4349D2*
X6902Y4359D1*
D2*
X6873Y4388D1*
D2*
Y4187D1*
X6754Y4388D2*
X6783Y4378D1*
D2*
X6802Y4349D1*
D2*
X6811Y4302D1*
D2*
Y4273D1*
D2*
X6802Y4225D1*
D2*
X6783Y4196D1*
D2*
X6754Y4187D1*
D2*
X6735D1*
D2*
X6706Y4196D1*
D2*
X6687Y4225D1*
D2*
X6677Y4273D1*
D2*
Y4302D1*
D2*
X6687Y4349D1*
D2*
X6706Y4378D1*
D2*
X6735Y4388D1*
D2*
X6754D1*
X6687Y4349D2*
X6802Y4225D1*
X6616Y4388D2*
Y4187D1*
X6520Y4321D2*
X6616Y4225D1*
X6577Y4263D2*
X6510Y4187D1*
X6206Y4321D2*
X6226Y4311D1*
D2*
X6245Y4292D1*
D2*
X6254Y4263D1*
D2*
Y4244D1*
D2*
X6245Y4216D1*
D2*
X6226Y4197D1*
D2*
X6206Y4187D1*
D2*
X6178D1*
D2*
X6159Y4197D1*
D2*
X6140Y4216D1*
D2*
X6130Y4244D1*
D2*
Y4263D1*
D2*
X6140Y4292D1*
D2*
X6159Y4311D1*
D2*
X6178Y4321D1*
D2*
X6206D1*
X6068Y4388D2*
Y4187D1*
Y4283D2*
X6039Y4311D1*
D2*
X6020Y4321D1*
D2*
X5991D1*
D2*
X5972Y4311D1*
D2*
X5963Y4283D1*
D2*
Y4187D1*
X5901Y4321D2*
Y4187D1*
Y4283D2*
X5872Y4311D1*
D2*
X5853Y4321D1*
D2*
X5825D1*
D2*
X5805Y4311D1*
D2*
X5796Y4283D1*
D2*
Y4187D1*
Y4283D2*
X5767Y4311D1*
D2*
X5748Y4321D1*
D2*
X5719D1*
D2*
X5700Y4311D1*
D2*
X5690Y4283D1*
D2*
Y4187D1*
M02*
