G04 DipTrace 2.2.0.9*
%INTop.gbr*%
%MOIN*%
%ADD13C,0.0118*%
%ADD14C,0.012*%
%ADD16R,0.0551X0.0118*%
%ADD17R,0.0512X0.0591*%
%ADD18R,0.0591X0.0512*%
%ADD19C,0.0709*%
%ADD20C,0.04*%
%FSLAX44Y44*%
%SFA1B1*%
%OFA0B0*%
G04*
G70*
G90*
G75*
G01*
%LNTop*%
%LPD*%
X9075Y6316D2*
D13*
X9410D1*
D14*
X9878D1*
Y6753D1*
X9628Y7003D1*
X8693D1*
X8193Y7503D1*
X12504Y7003D2*
X12066D1*
X11566Y7503D1*
X8193D2*
X7441D1*
X11566D2*
X11628D1*
X12191Y8066D1*
X4753Y7878D2*
X6940D1*
X7128Y8066D1*
X10255D1*
X10818Y7503D1*
X12504Y5501D2*
Y6255D1*
X4753Y4878D2*
X7003D1*
X7065Y4815D1*
X9566Y4503D2*
X7378D1*
X7065Y4815D1*
X8003Y5940D2*
Y5503D1*
X8066Y5440D1*
X8691D1*
X9075Y5922D2*
D13*
X8739D1*
D14*
X8021D1*
X8003Y5940D1*
X9075Y6119D2*
D13*
X8739D1*
D14*
X8503D1*
X8182D1*
X8003Y5940D1*
X9075Y6513D2*
D13*
X8763D1*
D14*
X8503Y6253D1*
Y6119D1*
X10807Y6316D2*
D13*
X11143D1*
D14*
X11316D1*
Y6941D1*
X12504Y6255D2*
X12189D1*
X11503Y6941D1*
X11316D1*
X8941Y7503D2*
X9753D1*
X10316Y6941D1*
X11316D1*
X10807Y6119D2*
D13*
X11143D1*
D14*
X11700D1*
X11753Y6065D1*
X10314Y4503D2*
Y5065D1*
X7816D1*
X7566Y5315D1*
X5315D1*
X4753Y5878D1*
X9075Y6709D2*
D13*
X8739D1*
D14*
X8024D1*
X8003Y6688D1*
X4753Y6878D2*
X6378D1*
X6628Y6628D1*
X7943D1*
X8003Y6688D1*
X12504Y4753D2*
X13629D1*
X14754Y5878D1*
X10807Y5922D2*
D13*
X11143D1*
D14*
X11334D1*
X12504Y4753D1*
X10807Y6513D2*
D13*
X10472D1*
D14*
X10325D1*
X10191Y6378D1*
Y6003D1*
X10272Y5922D1*
X10807D1*
D20*
X11753Y6065D3*
X7065Y4815D3*
X7441Y7503D3*
X12191Y8066D3*
X8691Y5440D3*
X11316Y6941D3*
D16*
X9075Y6709D3*
Y6513D3*
Y6316D3*
Y6119D3*
Y5922D3*
X10807D3*
Y6119D3*
Y6316D3*
Y6513D3*
Y6709D3*
D17*
X8941Y7503D3*
X8193D3*
X11566D3*
X10818D3*
D18*
X12504Y7003D3*
Y6255D3*
D17*
X9566Y4503D3*
X10314D3*
D18*
X8003Y5940D3*
Y6688D3*
D19*
X14754Y5878D3*
X4753D3*
Y6878D3*
X14754D3*
D18*
X12504Y4753D3*
Y5501D3*
D19*
X4753Y7878D3*
Y4878D3*
M02*
