G04 DipTrace 2.2.0.9*
%INTopSilk.gbr*%
%MOIN*%
%ADD10C,0.0098*%
%ADD34C,0.0077*%
%FSLAX44Y44*%
%SFA1B1*%
%OFA0B0*%
G04*
G70*
G90*
G75*
G01*
%LNTopSilk*%
%LPD*%
X9508Y6906D2*
D10*
Y5725D1*
X10374D2*
Y6906D1*
Y5725D2*
X9508D1*
Y6906D2*
X9783D1*
X10099D2*
X10374D1*
X9783D2*
G03X10099Y6906I158J0D01*
G01*
X12248Y7416D2*
X12759D1*
Y4339D2*
X12248D1*
X9636Y7639D2*
D34*
Y7280D1*
D2*
X9660Y7208D1*
D2*
X9708Y7160D1*
D2*
X9780Y7136D1*
D2*
X9828D1*
D2*
X9899Y7160D1*
D2*
X9948Y7208D1*
D2*
X9971Y7280D1*
D2*
Y7639D1*
X10126Y7542D2*
X10174Y7567D1*
D2*
X10246Y7638D1*
D2*
Y7136D1*
X8262Y8291D2*
X8477D1*
D2*
X8549Y8316D1*
D2*
X8573Y8339D1*
D2*
X8597Y8387D1*
D2*
Y8435D1*
D2*
X8573Y8482D1*
D2*
X8549Y8507D1*
D2*
X8477Y8531D1*
D2*
X8262D1*
D2*
Y8028D1*
X8430Y8291D2*
X8597Y8028D1*
X8751Y8434D2*
X8799Y8459D1*
D2*
X8871Y8530D1*
D2*
Y8028D1*
X10780Y8291D2*
X10995D1*
D2*
X11067Y8316D1*
D2*
X11091Y8339D1*
D2*
X11115Y8387D1*
D2*
Y8435D1*
D2*
X11091Y8482D1*
D2*
X11067Y8507D1*
D2*
X10995Y8531D1*
D2*
X10780D1*
D2*
Y8028D1*
X10947Y8291D2*
X11115Y8028D1*
X11293Y8411D2*
Y8434D1*
D2*
X11317Y8482D1*
D2*
X11341Y8506D1*
D2*
X11389Y8530D1*
D2*
X11485D1*
D2*
X11532Y8506D1*
D2*
X11556Y8482D1*
D2*
X11580Y8434D1*
D2*
Y8387D1*
D2*
X11556Y8339D1*
D2*
X11508Y8267D1*
D2*
X11269Y8028D1*
D2*
X11604D1*
X11595Y6750D2*
X11548Y6726D1*
D2*
X11500Y6678D1*
D2*
X11476Y6631D1*
D2*
Y6535D1*
D2*
X11500Y6487D1*
D2*
X11548Y6439D1*
D2*
X11595Y6415D1*
D2*
X11667Y6391D1*
D2*
X11787D1*
D2*
X11859Y6415D1*
D2*
X11907Y6439D1*
D2*
X11954Y6487D1*
D2*
X11978Y6535D1*
D2*
Y6631D1*
D2*
X11954Y6678D1*
D2*
X11907Y6726D1*
D2*
X11859Y6750D1*
X11572Y6904D2*
X11548Y6952D1*
D2*
X11477Y7024D1*
D2*
X11978D1*
X9528Y5291D2*
X9743D1*
D2*
X9814Y5315D1*
D2*
X9839Y5339D1*
D2*
X9863Y5387D1*
D2*
Y5435D1*
D2*
X9839Y5482D1*
D2*
X9814Y5506D1*
D2*
X9743Y5530D1*
D2*
X9528D1*
D2*
Y5028D1*
X9695Y5291D2*
X9863Y5028D1*
X10065Y5530D2*
X10328D1*
D2*
X10184Y5338D1*
D2*
X10256D1*
D2*
X10304Y5315D1*
D2*
X10328Y5291D1*
D2*
X10352Y5219D1*
D2*
Y5172D1*
D2*
X10328Y5100D1*
D2*
X10280Y5052D1*
D2*
X10208Y5028D1*
D2*
X10136D1*
D2*
X10065Y5052D1*
D2*
X10041Y5076D1*
D2*
X10017Y5123D1*
X7215Y5890D2*
Y6105D1*
D2*
X7191Y6177D1*
D2*
X7167Y6202D1*
D2*
X7119Y6225D1*
D2*
X7071D1*
D2*
X7024Y6202D1*
D2*
X6999Y6177D1*
D2*
X6976Y6105D1*
D2*
Y5890D1*
D2*
X7478D1*
X7215Y6058D2*
X7478Y6225D1*
Y6619D2*
X6976D1*
D2*
X7311Y6380D1*
D2*
Y6738D1*
X13207Y6152D2*
X13399Y5649D1*
D2*
X13590Y6152D1*
X13959Y6116D2*
Y5685D1*
X13744Y5900D2*
X14175D1*
X5631Y6080D2*
X5583Y6128D1*
D2*
X5511Y6152D1*
D2*
X5416D1*
D2*
X5344Y6128D1*
D2*
X5296Y6080D1*
D2*
Y6032D1*
D2*
X5320Y5984D1*
D2*
X5344Y5961D1*
D2*
X5391Y5937D1*
D2*
X5535Y5889D1*
D2*
X5583Y5865D1*
D2*
X5607Y5841D1*
D2*
X5631Y5793D1*
D2*
Y5721D1*
D2*
X5583Y5674D1*
D2*
X5511Y5649D1*
D2*
X5416D1*
D2*
X5344Y5674D1*
D2*
X5296Y5721D1*
X6144Y6032D2*
X6120Y6080D1*
D2*
X6072Y6128D1*
D2*
X6024Y6152D1*
D2*
X5929D1*
D2*
X5881Y6128D1*
D2*
X5833Y6080D1*
D2*
X5809Y6032D1*
D2*
X5785Y5961D1*
D2*
Y5841D1*
D2*
X5809Y5769D1*
D2*
X5833Y5721D1*
D2*
X5881Y5674D1*
D2*
X5929Y5649D1*
D2*
X6024D1*
D2*
X6072Y5674D1*
D2*
X6120Y5721D1*
D2*
X6144Y5769D1*
X6298Y6152D2*
Y5649D1*
D2*
X6585D1*
X5657Y7080D2*
X5609Y7128D1*
D2*
X5538Y7152D1*
D2*
X5442D1*
D2*
X5370Y7128D1*
D2*
X5322Y7080D1*
D2*
Y7033D1*
D2*
X5346Y6984D1*
D2*
X5370Y6961D1*
D2*
X5418Y6937D1*
D2*
X5561Y6889D1*
D2*
X5609Y6865D1*
D2*
X5633Y6841D1*
D2*
X5657Y6793D1*
D2*
Y6721D1*
D2*
X5609Y6674D1*
D2*
X5538Y6650D1*
D2*
X5442D1*
D2*
X5370Y6674D1*
D2*
X5322Y6721D1*
X5811Y7152D2*
Y6650D1*
D2*
X5979D1*
D2*
X6051Y6674D1*
D2*
X6099Y6721D1*
D2*
X6123Y6769D1*
D2*
X6146Y6841D1*
D2*
Y6961D1*
D2*
X6123Y7033D1*
D2*
X6099Y7080D1*
D2*
X6051Y7128D1*
D2*
X5979Y7152D1*
D2*
X5811D1*
X6684Y6650D2*
X6492Y7152D1*
D2*
X6301Y6650D1*
X6373Y6817D2*
X6612D1*
X13207Y6850D2*
X13422D1*
D2*
X13494Y6874D1*
D2*
X13518Y6898D1*
D2*
X13542Y6946D1*
D2*
Y6994D1*
D2*
X13518Y7041D1*
D2*
X13494Y7066D1*
D2*
X13422Y7089D1*
D2*
X13207D1*
D2*
Y6587D1*
X13375Y6850D2*
X13542Y6587D1*
X13697Y7089D2*
X13816Y6587D1*
D2*
X13936Y7089D1*
D2*
X14055Y6587D1*
D2*
X14175Y7089D1*
X11595Y4983D2*
X11548Y4959D1*
D2*
X11500Y4911D1*
D2*
X11476Y4863D1*
D2*
Y4768D1*
D2*
X11500Y4720D1*
D2*
X11548Y4672D1*
D2*
X11595Y4648D1*
D2*
X11667Y4624D1*
D2*
X11787D1*
D2*
X11859Y4648D1*
D2*
X11907Y4672D1*
D2*
X11954Y4720D1*
D2*
X11978Y4768D1*
D2*
Y4863D1*
D2*
X11954Y4911D1*
D2*
X11907Y4959D1*
D2*
X11859Y4983D1*
X11596Y5161D2*
X11572D1*
D2*
X11524Y5185D1*
D2*
X11500Y5209D1*
D2*
X11477Y5257D1*
D2*
Y5353D1*
D2*
X11500Y5400D1*
D2*
X11524Y5424D1*
D2*
X11572Y5448D1*
D2*
X11620D1*
D2*
X11668Y5424D1*
D2*
X11739Y5376D1*
D2*
X11978Y5137D1*
D2*
Y5472D1*
X5552Y8053D2*
Y7623D1*
X5337Y7838D2*
X5768D1*
X6209Y8089D2*
X5970D1*
D2*
X5946Y7874D1*
D2*
X5970Y7898D1*
D2*
X6042Y7922D1*
D2*
X6113D1*
D2*
X6185Y7898D1*
D2*
X6233Y7850D1*
D2*
X6257Y7778D1*
D2*
Y7731D1*
D2*
X6233Y7659D1*
D2*
X6185Y7611D1*
D2*
X6113Y7587D1*
D2*
X6042D1*
D2*
X5970Y7611D1*
D2*
X5946Y7635D1*
D2*
X5922Y7683D1*
X6411Y8090D2*
X6603Y7587D1*
D2*
X6794Y8090D1*
X5630Y4970D2*
X5607Y5017D1*
D2*
X5559Y5065D1*
D2*
X5511Y5089D1*
D2*
X5415D1*
D2*
X5367Y5065D1*
D2*
X5320Y5017D1*
D2*
X5295Y4970D1*
D2*
X5272Y4898D1*
D2*
Y4778D1*
D2*
X5295Y4707D1*
D2*
X5320Y4659D1*
D2*
X5367Y4611D1*
D2*
X5415Y4587D1*
D2*
X5511D1*
D2*
X5559Y4611D1*
D2*
X5607Y4659D1*
D2*
X5630Y4707D1*
D2*
Y4778D1*
D2*
X5511D1*
X6120Y5089D2*
Y4587D1*
D2*
X5785Y5089D1*
D2*
Y4587D1*
X6274Y5089D2*
Y4587D1*
D2*
X6442D1*
D2*
X6513Y4611D1*
D2*
X6562Y4659D1*
D2*
X6585Y4707D1*
D2*
X6609Y4778D1*
D2*
Y4898D1*
D2*
X6585Y4970D1*
D2*
X6562Y5017D1*
D2*
X6513Y5065D1*
D2*
X6442Y5089D1*
D2*
X6274D1*
M02*
