G04 DipTrace 2.2.0.9*
%INTopSilk.gbr*%
%MOIN*%
%ADD10C,0.0098*%
%ADD34C,0.0077*%
%FSLAX44Y44*%
%SFA1B1*%
%OFA0B0*%
G04*
G70*
G90*
G75*
G01*
%LNTopSilk*%
%LPD*%
X7516Y6987D2*
D10*
Y5806D1*
X8383D2*
Y6987D1*
Y5806D2*
X7516D1*
Y6987D2*
X7792D1*
X8107D2*
X8383D1*
X7792D2*
G03X8107Y6987I158J0D01*
G01*
X7153Y5352D2*
D34*
X7368D1*
D2*
X7440Y5377D1*
D2*
X7465Y5400D1*
D2*
X7488Y5448D1*
D2*
Y5496D1*
D2*
X7465Y5544D1*
D2*
X7440Y5568D1*
D2*
X7368Y5592D1*
D2*
X7153D1*
D2*
Y5089D1*
X7321Y5352D2*
X7488Y5089D1*
X7691Y5591D2*
X7953D1*
D2*
X7810Y5400D1*
D2*
X7882D1*
D2*
X7930Y5376D1*
D2*
X7953Y5352D1*
D2*
X7978Y5281D1*
D2*
Y5233D1*
D2*
X7953Y5161D1*
D2*
X7906Y5113D1*
D2*
X7834Y5089D1*
D2*
X7762D1*
D2*
X7691Y5113D1*
D2*
X7667Y5137D1*
D2*
X7643Y5185D1*
X8766Y5353D2*
X8981D1*
D2*
X9053Y5378D1*
D2*
X9077Y5401D1*
D2*
X9101Y5449D1*
D2*
Y5497D1*
D2*
X9077Y5545D1*
D2*
X9053Y5569D1*
D2*
X8981Y5593D1*
D2*
X8766D1*
D2*
Y5090D1*
X8933Y5353D2*
X9101Y5090D1*
X9494D2*
Y5592D1*
D2*
X9255Y5258D1*
D2*
X9614D1*
X9832Y6777D2*
X10023Y6275D1*
D2*
X10215Y6777D1*
X10584Y6741D2*
Y6310D1*
X10369Y6525D2*
X10800D1*
X5506Y4705D2*
X5458Y4753D1*
D2*
X5386Y4777D1*
D2*
X5291D1*
D2*
X5219Y4753D1*
D2*
X5171Y4705D1*
D2*
Y4657D1*
D2*
X5195Y4609D1*
D2*
X5219Y4585D1*
D2*
X5266Y4562D1*
D2*
X5410Y4514D1*
D2*
X5458Y4490D1*
D2*
X5482Y4466D1*
D2*
X5506Y4418D1*
D2*
Y4346D1*
D2*
X5458Y4299D1*
D2*
X5386Y4274D1*
D2*
X5291D1*
D2*
X5219Y4299D1*
D2*
X5171Y4346D1*
X6019Y4657D2*
X5995Y4705D1*
D2*
X5947Y4753D1*
D2*
X5899Y4777D1*
D2*
X5804D1*
D2*
X5756Y4753D1*
D2*
X5708Y4705D1*
D2*
X5684Y4657D1*
D2*
X5660Y4585D1*
D2*
Y4466D1*
D2*
X5684Y4394D1*
D2*
X5708Y4346D1*
D2*
X5756Y4299D1*
D2*
X5804Y4274D1*
D2*
X5899D1*
D2*
X5947Y4299D1*
D2*
X5995Y4346D1*
D2*
X6019Y4394D1*
X6173Y4777D2*
Y4274D1*
D2*
X6460D1*
X5469Y5642D2*
X5422Y5691D1*
D2*
X5350Y5714D1*
D2*
X5254D1*
D2*
X5183Y5691D1*
D2*
X5135Y5642D1*
D2*
Y5595D1*
D2*
X5159Y5547D1*
D2*
X5183Y5523D1*
D2*
X5230Y5499D1*
D2*
X5374Y5451D1*
D2*
X5422Y5427D1*
D2*
X5446Y5403D1*
D2*
X5469Y5356D1*
D2*
Y5284D1*
D2*
X5422Y5236D1*
D2*
X5350Y5212D1*
D2*
X5254D1*
D2*
X5183Y5236D1*
D2*
X5135Y5284D1*
X5624Y5714D2*
Y5212D1*
D2*
X5791D1*
D2*
X5863Y5236D1*
D2*
X5911Y5284D1*
D2*
X5935Y5332D1*
D2*
X5959Y5403D1*
D2*
Y5523D1*
D2*
X5935Y5595D1*
D2*
X5911Y5642D1*
D2*
X5863Y5691D1*
D2*
X5791Y5714D1*
D2*
X5624D1*
X6496Y5212D2*
X6304Y5714D1*
D2*
X6113Y5212D1*
X6185Y5379D2*
X6424D1*
X9832Y5537D2*
X10047D1*
D2*
X10119Y5562D1*
D2*
X10143Y5586D1*
D2*
X10167Y5633D1*
D2*
Y5681D1*
D2*
X10143Y5729D1*
D2*
X10119Y5753D1*
D2*
X10047Y5777D1*
D2*
X9832D1*
D2*
Y5274D1*
X9999Y5537D2*
X10167Y5274D1*
X10321Y5777D2*
X10441Y5274D1*
D2*
X10560Y5777D1*
D2*
X10680Y5274D1*
D2*
X10800Y5777D1*
X5447Y7667D2*
X5423Y7715D1*
D2*
X5375Y7763D1*
D2*
X5328Y7786D1*
D2*
X5232D1*
D2*
X5184Y7763D1*
D2*
X5137Y7715D1*
D2*
X5112Y7667D1*
D2*
X5088Y7595D1*
D2*
Y7475D1*
D2*
X5112Y7404D1*
D2*
X5137Y7356D1*
D2*
X5184Y7308D1*
D2*
X5232Y7284D1*
D2*
X5328D1*
D2*
X5375Y7308D1*
D2*
X5423Y7356D1*
D2*
X5447Y7404D1*
D2*
Y7475D1*
D2*
X5328D1*
X5936Y7786D2*
Y7284D1*
D2*
X5602Y7786D1*
D2*
Y7284D1*
X6091Y7786D2*
Y7284D1*
D2*
X6258D1*
D2*
X6330Y7308D1*
D2*
X6378Y7356D1*
D2*
X6402Y7404D1*
D2*
X6426Y7475D1*
D2*
Y7595D1*
D2*
X6402Y7667D1*
D2*
X6378Y7715D1*
D2*
X6330Y7763D1*
D2*
X6258Y7786D1*
D2*
X6091D1*
X5241Y6688D2*
Y6257D1*
X5026Y6472D2*
X5456D1*
X5898Y6723D2*
X5659D1*
D2*
X5635Y6508D1*
D2*
X5659Y6532D1*
D2*
X5731Y6556D1*
D2*
X5802D1*
D2*
X5874Y6532D1*
D2*
X5922Y6484D1*
D2*
X5946Y6413D1*
D2*
Y6365D1*
D2*
X5922Y6293D1*
D2*
X5874Y6245D1*
D2*
X5802Y6221D1*
D2*
X5731D1*
D2*
X5659Y6245D1*
D2*
X5635Y6269D1*
D2*
X5611Y6317D1*
X6100Y6724D2*
X6291Y6221D1*
D2*
X6483Y6724D1*
M02*
